<mxfile host="Electron" modified="2023-12-03T16:28:13.155Z" agent="Mozilla/5.0 (X11; Linux x86_64) AppleWebKit/537.36 (KHTML, like Gecko) draw.io/22.1.2 Chrome/114.0.5735.289 Electron/25.9.4 Safari/537.36" etag="4X5ZotKemLRMW4jt50m9" version="22.1.2" type="device">
  <diagram name="1 oldal" id="9zMQckgTDTX1H3_rx6Bh">
    <mxGraphModel dx="1434" dy="852" grid="1" gridSize="10" guides="0" tooltips="1" connect="1" arrows="1" fold="1" page="1" pageScale="1" pageWidth="827" pageHeight="1169" math="0" shadow="0">
      <root>
        <mxCell id="0" />
        <mxCell id="1" parent="0" />
        <mxCell id="TzNF0aJQ4u_LGAxk8pzm-8" value="" style="rounded=0;whiteSpace=wrap;html=1;fillColor=none;" parent="1" vertex="1">
          <mxGeometry x="450" y="190" width="60" height="80" as="geometry" />
        </mxCell>
        <mxCell id="TzNF0aJQ4u_LGAxk8pzm-9" value="" style="rounded=0;whiteSpace=wrap;html=1;fillColor=none;" parent="1" vertex="1">
          <mxGeometry x="450" y="440" width="60" height="70" as="geometry" />
        </mxCell>
        <mxCell id="6gjyLuOeQKCfZ8NrFjTt-1" value="adipiscing" style="strokeWidth=2;html=1;shape=mxgraph.flowchart.document2;whiteSpace=wrap;size=0.08552188552188543;horizontal=0;fontSize=30;" parent="1" vertex="1">
          <mxGeometry x="130" y="480" width="50" height="190" as="geometry" />
        </mxCell>
        <mxCell id="6gjyLuOeQKCfZ8NrFjTt-7" value="&lt;meta charset=&quot;utf-8&quot;&gt;&lt;span lang=&quot;en&quot; class=&quot;ILfuVd&quot;&gt;&lt;span class=&quot;hgKElc&quot;&gt;∅&lt;/span&gt;&lt;/span&gt;" style="rounded=1;whiteSpace=wrap;html=1;absoluteArcSize=1;arcSize=14;strokeWidth=2;horizontal=0;fontSize=30;" parent="1" vertex="1">
          <mxGeometry x="190" y="510" width="50" height="60" as="geometry" />
        </mxCell>
        <mxCell id="6gjyLuOeQKCfZ8NrFjTt-8" value="amet" style="strokeWidth=2;html=1;shape=mxgraph.flowchart.document2;whiteSpace=wrap;size=0.14410774410774316;horizontal=0;fontSize=30;" parent="1" vertex="1">
          <mxGeometry x="190" y="570" width="50" height="100" as="geometry" />
        </mxCell>
        <mxCell id="6gjyLuOeQKCfZ8NrFjTt-9" value="amet" style="rounded=1;whiteSpace=wrap;html=1;absoluteArcSize=1;arcSize=14;strokeWidth=2;horizontal=0;fontSize=30;" parent="1" vertex="1">
          <mxGeometry x="250" y="190" width="50" height="90" as="geometry" />
        </mxCell>
        <mxCell id="6gjyLuOeQKCfZ8NrFjTt-12" value="&lt;meta charset=&quot;utf-8&quot;&gt;&lt;span lang=&quot;en&quot; class=&quot;ILfuVd&quot;&gt;&lt;span class=&quot;hgKElc&quot;&gt;∅&lt;/span&gt;&lt;/span&gt;" style="rounded=1;whiteSpace=wrap;html=1;absoluteArcSize=1;arcSize=14;strokeWidth=2;horizontal=0;fontSize=30;" parent="1" vertex="1">
          <mxGeometry x="310" y="490" width="50" height="60" as="geometry" />
        </mxCell>
        <mxCell id="6gjyLuOeQKCfZ8NrFjTt-14" value="ipsum" style="rounded=1;whiteSpace=wrap;html=1;absoluteArcSize=1;arcSize=14;strokeWidth=2;horizontal=0;fontSize=30;" parent="1" vertex="1">
          <mxGeometry x="250" y="500" width="50" height="110" as="geometry" />
        </mxCell>
        <mxCell id="6gjyLuOeQKCfZ8NrFjTt-17" value="lorem" style="rounded=1;whiteSpace=wrap;html=1;absoluteArcSize=1;arcSize=14;strokeWidth=2;horizontal=0;fontSize=30;" parent="1" vertex="1">
          <mxGeometry x="310" y="330" width="50" height="80" as="geometry" />
        </mxCell>
        <mxCell id="6gjyLuOeQKCfZ8NrFjTt-19" value="dolor" style="strokeWidth=2;html=1;shape=mxgraph.flowchart.document2;whiteSpace=wrap;size=0.10752688172042989;horizontal=0;fontSize=30;spacing=2;" parent="1" vertex="1">
          <mxGeometry x="310" y="550" width="50" height="120" as="geometry" />
        </mxCell>
        <mxCell id="6gjyLuOeQKCfZ8NrFjTt-20" value="dolor" style="rounded=1;whiteSpace=wrap;html=1;absoluteArcSize=1;arcSize=14;strokeWidth=2;horizontal=0;fontSize=30;" parent="1" vertex="1">
          <mxGeometry x="370" y="190" width="50" height="70" as="geometry" />
        </mxCell>
        <mxCell id="6gjyLuOeQKCfZ8NrFjTt-22" value="&lt;meta charset=&quot;utf-8&quot;&gt;&lt;span lang=&quot;en&quot; class=&quot;ILfuVd&quot;&gt;&lt;span class=&quot;hgKElc&quot;&gt;∅&lt;/span&gt;&lt;/span&gt;" style="rounded=1;whiteSpace=wrap;html=1;absoluteArcSize=1;arcSize=14;strokeWidth=2;horizontal=0;fontSize=30;" parent="1" vertex="1">
          <mxGeometry x="370" y="380" width="50" height="60" as="geometry" />
        </mxCell>
        <mxCell id="6gjyLuOeQKCfZ8NrFjTt-24" value="elit" style="rounded=1;whiteSpace=wrap;html=1;absoluteArcSize=1;arcSize=14;strokeWidth=2;horizontal=0;fontSize=30;" parent="1" vertex="1">
          <mxGeometry x="370" y="530" width="50" height="140" as="geometry" />
        </mxCell>
        <mxCell id="6gjyLuOeQKCfZ8NrFjTt-26" value="" style="endArrow=none;dashed=1;html=1;rounded=0;dashPattern=1 2;strokeWidth=5;jumpSize=7;jumpStyle=none;endFill=0;strokeColor=default;" parent="1" edge="1">
          <mxGeometry width="50" height="50" relative="1" as="geometry">
            <mxPoint x="110" y="660" as="sourcePoint" />
            <mxPoint x="110" y="190" as="targetPoint" />
          </mxGeometry>
        </mxCell>
        <mxCell id="6gjyLuOeQKCfZ8NrFjTt-27" value="" style="endArrow=none;html=1;rounded=0;strokeWidth=3;jumpSize=7;jumpStyle=none;endFill=0;strokeColor=default;" parent="1" edge="1">
          <mxGeometry width="50" height="50" relative="1" as="geometry">
            <mxPoint x="125" y="180" as="sourcePoint" />
            <mxPoint x="125" y="160" as="targetPoint" />
          </mxGeometry>
        </mxCell>
        <mxCell id="6gjyLuOeQKCfZ8NrFjTt-34" value="" style="endArrow=none;html=1;rounded=0;strokeWidth=3;jumpSize=7;jumpStyle=none;endFill=0;strokeColor=default;" parent="1" edge="1">
          <mxGeometry width="50" height="50" relative="1" as="geometry">
            <mxPoint x="185" y="180" as="sourcePoint" />
            <mxPoint x="185" y="160" as="targetPoint" />
          </mxGeometry>
        </mxCell>
        <mxCell id="6gjyLuOeQKCfZ8NrFjTt-35" value="" style="endArrow=none;html=1;rounded=0;strokeWidth=3;jumpSize=7;jumpStyle=none;endFill=0;strokeColor=default;" parent="1" edge="1">
          <mxGeometry width="50" height="50" relative="1" as="geometry">
            <mxPoint x="245" y="180" as="sourcePoint" />
            <mxPoint x="245" y="160" as="targetPoint" />
          </mxGeometry>
        </mxCell>
        <mxCell id="6gjyLuOeQKCfZ8NrFjTt-36" value="" style="endArrow=none;html=1;rounded=0;strokeWidth=3;jumpSize=7;jumpStyle=none;endFill=0;strokeColor=default;" parent="1" edge="1">
          <mxGeometry width="50" height="50" relative="1" as="geometry">
            <mxPoint x="305" y="180" as="sourcePoint" />
            <mxPoint x="305" y="160" as="targetPoint" />
          </mxGeometry>
        </mxCell>
        <mxCell id="6gjyLuOeQKCfZ8NrFjTt-37" value="" style="endArrow=none;html=1;rounded=0;strokeWidth=3;jumpSize=7;jumpStyle=none;endFill=0;strokeColor=default;" parent="1" edge="1">
          <mxGeometry width="50" height="50" relative="1" as="geometry">
            <mxPoint x="365" y="180" as="sourcePoint" />
            <mxPoint x="365" y="160" as="targetPoint" />
          </mxGeometry>
        </mxCell>
        <mxCell id="6gjyLuOeQKCfZ8NrFjTt-38" value="" style="endArrow=none;html=1;rounded=0;strokeWidth=3;jumpSize=7;jumpStyle=none;endFill=0;strokeColor=default;" parent="1" edge="1">
          <mxGeometry width="50" height="50" relative="1" as="geometry">
            <mxPoint x="425" y="180" as="sourcePoint" />
            <mxPoint x="425" y="160" as="targetPoint" />
          </mxGeometry>
        </mxCell>
        <mxCell id="6gjyLuOeQKCfZ8NrFjTt-44" value="" style="endArrow=classic;html=1;rounded=0;edgeStyle=orthogonalEdgeStyle;strokeWidth=2;strokeColor=#999999;" parent="1" edge="1">
          <mxGeometry width="50" height="50" relative="1" as="geometry">
            <mxPoint x="200" y="170" as="sourcePoint" />
            <mxPoint x="220" y="188" as="targetPoint" />
          </mxGeometry>
        </mxCell>
        <mxCell id="6gjyLuOeQKCfZ8NrFjTt-45" value="" style="endArrow=classic;html=1;rounded=0;edgeStyle=orthogonalEdgeStyle;strokeWidth=2;strokeColor=#999999;" parent="1" edge="1">
          <mxGeometry width="50" height="50" relative="1" as="geometry">
            <mxPoint x="260" y="170" as="sourcePoint" />
            <mxPoint x="280" y="188" as="targetPoint" />
          </mxGeometry>
        </mxCell>
        <mxCell id="6gjyLuOeQKCfZ8NrFjTt-46" value="" style="endArrow=classic;html=1;rounded=0;edgeStyle=orthogonalEdgeStyle;strokeWidth=2;strokeColor=#999999;" parent="1" edge="1">
          <mxGeometry width="50" height="50" relative="1" as="geometry">
            <mxPoint x="320" y="170" as="sourcePoint" />
            <mxPoint x="340" y="188" as="targetPoint" />
          </mxGeometry>
        </mxCell>
        <mxCell id="6gjyLuOeQKCfZ8NrFjTt-47" value="" style="endArrow=classic;html=1;rounded=0;edgeStyle=orthogonalEdgeStyle;strokeWidth=2;strokeColor=#999999;" parent="1" edge="1">
          <mxGeometry width="50" height="50" relative="1" as="geometry">
            <mxPoint x="380" y="170" as="sourcePoint" />
            <mxPoint x="400" y="188" as="targetPoint" />
          </mxGeometry>
        </mxCell>
        <mxCell id="6gjyLuOeQKCfZ8NrFjTt-2" value="ipsum" style="rounded=1;whiteSpace=wrap;html=1;absoluteArcSize=1;arcSize=14;strokeWidth=2;horizontal=0;fontSize=30;strokeColor=#000000;fontColor=#000000;" parent="1" vertex="1">
          <mxGeometry x="130" y="290" width="50" height="130" as="geometry" />
        </mxCell>
        <mxCell id="6gjyLuOeQKCfZ8NrFjTt-5" value="adipiscing" style="rounded=1;whiteSpace=wrap;html=1;absoluteArcSize=1;arcSize=14;strokeWidth=2;horizontal=0;fontSize=30;strokeColor=#000000;fontColor=#000000;" parent="1" vertex="1">
          <mxGeometry x="190" y="190" width="50" height="160" as="geometry" />
        </mxCell>
        <mxCell id="6gjyLuOeQKCfZ8NrFjTt-11" value="&lt;meta charset=&quot;utf-8&quot;&gt;&lt;span lang=&quot;en&quot; class=&quot;ILfuVd&quot;&gt;&lt;span class=&quot;hgKElc&quot;&gt;∅&lt;/span&gt;&lt;/span&gt;" style="rounded=1;whiteSpace=wrap;html=1;absoluteArcSize=1;arcSize=14;strokeWidth=2;horizontal=0;fontSize=30;strokeColor=#000000;fontColor=#000000;" parent="1" vertex="1">
          <mxGeometry x="250" y="280" width="50" height="60" as="geometry" />
        </mxCell>
        <mxCell id="6gjyLuOeQKCfZ8NrFjTt-16" value="&lt;meta charset=&quot;utf-8&quot;&gt;&lt;span lang=&quot;en&quot; class=&quot;ILfuVd&quot;&gt;&lt;span class=&quot;hgKElc&quot;&gt;∅&lt;/span&gt;&lt;/span&gt;" style="rounded=1;whiteSpace=wrap;html=1;absoluteArcSize=1;arcSize=14;strokeWidth=2;horizontal=0;fontSize=30;strokeColor=#000000;fontColor=#000000;" parent="1" vertex="1">
          <mxGeometry x="310" y="270" width="50" height="60" as="geometry" />
        </mxCell>
        <mxCell id="6gjyLuOeQKCfZ8NrFjTt-21" value="elit" style="rounded=1;whiteSpace=wrap;html=1;absoluteArcSize=1;arcSize=14;strokeWidth=2;horizontal=0;fontSize=30;strokeColor=#000000;fontColor=#000000;" parent="1" vertex="1">
          <mxGeometry x="370" y="260" width="50" height="120" as="geometry" />
        </mxCell>
        <mxCell id="6gjyLuOeQKCfZ8NrFjTt-4" value="&lt;meta charset=&quot;utf-8&quot;&gt;&lt;span lang=&quot;en&quot; class=&quot;ILfuVd&quot;&gt;&lt;span class=&quot;hgKElc&quot;&gt;∅&lt;/span&gt;&lt;/span&gt;" style="rounded=1;whiteSpace=wrap;html=1;absoluteArcSize=1;arcSize=14;strokeWidth=2;horizontal=0;fontSize=30;strokeColor=#000000;fontColor=#000000;" parent="1" vertex="1">
          <mxGeometry x="130" y="420" width="50" height="60" as="geometry" />
        </mxCell>
        <mxCell id="6gjyLuOeQKCfZ8NrFjTt-10" value="consectetur" style="rounded=1;whiteSpace=wrap;html=1;absoluteArcSize=1;arcSize=14;strokeWidth=2;horizontal=0;fontSize=30;fontColor=#000000;strokeColor=#000000;" parent="1" vertex="1">
          <mxGeometry x="250" y="340" width="50" height="160" as="geometry" />
        </mxCell>
        <mxCell id="6gjyLuOeQKCfZ8NrFjTt-18" value="amet" style="rounded=1;whiteSpace=wrap;html=1;absoluteArcSize=1;arcSize=14;strokeWidth=2;horizontal=0;fontSize=30;fontColor=#000000;strokeColor=#000000;" parent="1" vertex="1">
          <mxGeometry x="310" y="410" width="50" height="80" as="geometry" />
        </mxCell>
        <mxCell id="TzNF0aJQ4u_LGAxk8pzm-2" value="" style="endArrow=classic;html=1;rounded=0;strokeColor=#000000;strokeWidth=3;fontColor=#000000;" parent="1" edge="1">
          <mxGeometry width="50" height="50" relative="1" as="geometry">
            <mxPoint x="41" y="405" as="sourcePoint" />
            <mxPoint x="65" y="405" as="targetPoint" />
          </mxGeometry>
        </mxCell>
        <mxCell id="6gjyLuOeQKCfZ8NrFjTt-3" value="lorem" style="rounded=1;whiteSpace=wrap;html=1;absoluteArcSize=1;arcSize=14;strokeWidth=2;horizontal=0;fontSize=30;strokeColor=#FF0000;fontColor=#FF0000;fillColor=#FFF5F5;" parent="1" vertex="1">
          <mxGeometry x="130" y="190" width="50" height="100" as="geometry" />
        </mxCell>
        <mxCell id="6gjyLuOeQKCfZ8NrFjTt-13" value="sit" style="strokeWidth=2;html=1;shape=mxgraph.flowchart.document2;whiteSpace=wrap;size=0.22580645161290439;horizontal=0;fontSize=30;fontColor=#3333FF;strokeColor=#3333FF;fillColor=#F5F5FF;" parent="1" vertex="1">
          <mxGeometry x="250" y="610" width="50" height="60" as="geometry" />
        </mxCell>
        <mxCell id="6gjyLuOeQKCfZ8NrFjTt-15" value="sit" style="rounded=1;whiteSpace=wrap;html=1;absoluteArcSize=1;arcSize=14;strokeWidth=2;horizontal=0;fontSize=30;fontColor=#3333FF;strokeColor=#3333FF;fillColor=#F5F5FF;" parent="1" vertex="1">
          <mxGeometry x="310" y="190" width="50" height="80" as="geometry" />
        </mxCell>
        <mxCell id="6gjyLuOeQKCfZ8NrFjTt-6" value="sit" style="rounded=1;whiteSpace=wrap;html=1;absoluteArcSize=1;arcSize=14;strokeWidth=2;horizontal=0;fontSize=30;fontColor=#3333FF;strokeColor=#3333FF;fillColor=#F5F5FF;" parent="1" vertex="1">
          <mxGeometry x="190" y="350" width="50" height="160" as="geometry" />
        </mxCell>
        <mxCell id="6gjyLuOeQKCfZ8NrFjTt-23" value="lorem" style="rounded=1;whiteSpace=wrap;html=1;absoluteArcSize=1;arcSize=14;strokeWidth=2;horizontal=0;fontSize=30;fontColor=#FF0000;strokeColor=#FF0000;fillColor=#FFF5F5;" parent="1" vertex="1">
          <mxGeometry x="370" y="440" width="50" height="90" as="geometry" />
        </mxCell>
        <mxCell id="TzNF0aJQ4u_LGAxk8pzm-3" value="" style="endArrow=none;html=1;rounded=0;strokeWidth=3;strokeColor=#FF0000;" parent="1" edge="1">
          <mxGeometry width="50" height="50" relative="1" as="geometry">
            <mxPoint x="470" y="290" as="sourcePoint" />
            <mxPoint x="470" y="190" as="targetPoint" />
          </mxGeometry>
        </mxCell>
        <mxCell id="TzNF0aJQ4u_LGAxk8pzm-4" value="" style="endArrow=none;html=1;rounded=0;strokeWidth=3;strokeColor=#3333FF;" parent="1" edge="1">
          <mxGeometry width="50" height="50" relative="1" as="geometry">
            <mxPoint x="490" y="270" as="sourcePoint" />
            <mxPoint x="490" y="190" as="targetPoint" />
          </mxGeometry>
        </mxCell>
        <mxCell id="TzNF0aJQ4u_LGAxk8pzm-5" value="" style="endArrow=none;html=1;rounded=0;strokeWidth=3;strokeColor=#3333FF;" parent="1" edge="1">
          <mxGeometry width="50" height="50" relative="1" as="geometry">
            <mxPoint x="490" y="510" as="sourcePoint" />
            <mxPoint x="490" y="350" as="targetPoint" />
          </mxGeometry>
        </mxCell>
        <mxCell id="TzNF0aJQ4u_LGAxk8pzm-6" value="" style="endArrow=none;html=1;rounded=0;strokeWidth=3;strokeColor=#FF0000;" parent="1" edge="1">
          <mxGeometry width="50" height="50" relative="1" as="geometry">
            <mxPoint x="470" y="530" as="sourcePoint" />
            <mxPoint x="470" y="440" as="targetPoint" />
          </mxGeometry>
        </mxCell>
        <mxCell id="TzNF0aJQ4u_LGAxk8pzm-7" value="" style="endArrow=none;html=1;rounded=0;strokeWidth=3;strokeColor=#3333FF;" parent="1" edge="1">
          <mxGeometry width="50" height="50" relative="1" as="geometry">
            <mxPoint x="490" y="670" as="sourcePoint" />
            <mxPoint x="490" y="610" as="targetPoint" />
          </mxGeometry>
        </mxCell>
        <mxCell id="TzNF0aJQ4u_LGAxk8pzm-10" value="" style="shape=curlyBracket;whiteSpace=wrap;html=1;rounded=1;flipH=1;labelPosition=right;verticalLabelPosition=middle;align=left;verticalAlign=middle;" parent="1" vertex="1">
          <mxGeometry x="520" y="190" width="20" height="80" as="geometry" />
        </mxCell>
        <mxCell id="TzNF0aJQ4u_LGAxk8pzm-11" value="" style="shape=curlyBracket;whiteSpace=wrap;html=1;rounded=1;flipH=1;labelPosition=right;verticalLabelPosition=middle;align=left;verticalAlign=middle;" parent="1" vertex="1">
          <mxGeometry x="520" y="440" width="20" height="70" as="geometry" />
        </mxCell>
        <mxCell id="wp-NA8kri3rjk7L92WM5-1" value="lorem" style="text;html=1;strokeColor=none;fillColor=none;align=center;verticalAlign=middle;whiteSpace=wrap;rounded=0;horizontal=0;fontSize=27;fontStyle=1;fontColor=#FF0000;" parent="1" vertex="1">
          <mxGeometry x="59" y="375" width="40" height="107" as="geometry" />
        </mxCell>
        <mxCell id="wp-NA8kri3rjk7L92WM5-2" value="sit" style="text;html=1;strokeColor=none;fillColor=none;align=center;verticalAlign=middle;whiteSpace=wrap;rounded=0;horizontal=0;fontSize=27;fontStyle=1;fontColor=#3333FF;" parent="1" vertex="1">
          <mxGeometry x="60" y="331" width="40" height="61" as="geometry" />
        </mxCell>
        <mxCell id="hvgZrDZ5TAC8yWmtueVv-4" value="{" style="text;html=1;strokeColor=none;fillColor=none;align=center;verticalAlign=middle;whiteSpace=wrap;rounded=0;horizontal=0;fontSize=27;fontStyle=1" parent="1" vertex="1">
          <mxGeometry x="60" y="459" width="40" height="40" as="geometry" />
        </mxCell>
        <mxCell id="hvgZrDZ5TAC8yWmtueVv-5" value="}" style="text;html=1;strokeColor=none;fillColor=none;align=center;verticalAlign=middle;whiteSpace=wrap;rounded=0;horizontal=0;fontSize=27;fontStyle=1" parent="1" vertex="1">
          <mxGeometry x="60" y="311" width="40" height="40" as="geometry" />
        </mxCell>
        <mxCell id="hvgZrDZ5TAC8yWmtueVv-6" value="," style="text;html=1;strokeColor=none;fillColor=none;align=center;verticalAlign=middle;whiteSpace=wrap;rounded=0;horizontal=0;fontSize=27;fontStyle=1" parent="1" vertex="1">
          <mxGeometry x="60" y="369" width="40" height="40" as="geometry" />
        </mxCell>
      </root>
    </mxGraphModel>
  </diagram>
</mxfile>
